SplineFontDB: 3.0
FontName: RivilGothic
FullName: RivilGothic
FamilyName: RivilGothic
Weight: Regular
Copyright: nokoyama
Version: 
ItalicAngle: 0
UnderlinePosition: 0
UnderlineWidth: 0
Ascent: 960
Descent: 64
InvalidEm: 0
LayerCount: 2
Layer: 0 0 "+gMyXYgAA" 1
Layer: 1 0 "+Uk2XYgAA" 0
StyleMap: 0x0000
FSType: 0
OS2Version: 0
OS2_WeightWidthSlopeOnly: 0
OS2_UseTypoMetrics: 0
CreationTime: 1483079167
ModificationTime: 1484311179
PfmFamily: 17
TTFWeight: 400
TTFWidth: 5
LineGap: 92
VLineGap: 92
OS2TypoAscent: 0
OS2TypoAOffset: 1
OS2TypoDescent: 0
OS2TypoDOffset: 1
OS2TypoLinegap: 92
OS2WinAscent: 0
OS2WinAOffset: 1
OS2WinDescent: 0
OS2WinDOffset: 1
HheadAscent: 0
HheadAOffset: 1
HheadDescent: 0
HheadDOffset: 1
OS2Vendor: 'PfEd'
Lookup: 258 0 0 "Kern1" { "Kern1-1" [128,128,0] } ['kern' ('DFLT' <'dflt' > 'latn' <'dflt' > ) ]
MarkAttachClasses: 1
DEI: 91125
KernClass2: 43 45 "Kern1-1"
 7 A K N S
 1 C
 11 Ccircumflex
 1 D
 3 E Y
 1 F
 1 G
 1 H
 1 I
 1 J
 1 L
 1 M
 1 O
 3 P R
 1 Q
 11 Scircumflex
 1 T
 1 U
 1 V
 1 W
 1 Z
 7 a k n s
 5 b p r
 1 c
 11 ccircumflex
 1 d
 3 e y
 1 f
 1 g
 1 h
 1 i
 1 j
 1 l
 1 m
 1 o
 1 q
 11 scircumflex
 1 t
 1 u
 1 v
 1 w
 1 z
 1 A
 1 B
 1 C
 11 Ccircumflex
 1 D
 3 E I
 1 F
 1 G
 1 H
 1 J
 3 K O
 1 L
 5 M N S
 1 P
 1 Q
 1 R
 11 Scircumflex
 1 T
 1 U
 1 V
 1 W
 1 Y
 1 Z
 1 a
 1 b
 1 c
 11 ccircumflex
 1 d
 3 e i
 1 f
 1 g
 1 h
 3 j z
 3 k o
 1 l
 5 m n s
 3 p r
 1 q
 11 scircumflex
 1 t
 1 u
 1 v
 1 w
 1 y

StartChar: uni0020
Encoding: 32 32 0
Width: 512
Flags: HW
LayerCount: 2
Fore
SplineSet
0 0 m 1024
EndSplineSet
EndChar

StartChar: B
Encoding: 66 66 1
Width: 768
HStem: 256 128<207.875 304.125> 768 128<377.176 518.824>
VStem: 64 128<399.875 496.719> 192 128<620.272 629 640 709.947> 320 128<399.875 496.719> 576 128<640 709.947>
LayerCount: 2
Fore
SplineSet
448 896 m 0xcc
 307 896 192 781 192 640 c 0
 192 629 l 0xd4
 118 602 64 531 64 448 c 0
 64 343 151 256 256 256 c 0
 361 256 448 343 448 448 c 0xec
 448 531 394 602 320 629 c 0
 320 640 l 0xd4
 320 711 377 768 448 768 c 0
 519 768 576 711 576 640 c 0
 576 0 l 0
 704 0 l 0
 704 640 l 0
 704 781 589 896 448 896 c 0xcc
256 512 m 0
 292 512 320 484 320 448 c 0
 320 412 292 384 256 384 c 0
 220 384 192 412 192 448 c 0xec
 192 484 220 512 256 512 c 0
EndSplineSet
EndChar

StartChar: C
Encoding: 67 67 2
Width: 1024
HStem: 512 128<207.875 304.432 719.568 816.125> 768 128<207.875 304.125 719.875 816.125>
VStem: 64 128<655.875 752.125> 320 128<655.508 752.125> 576 128<655.508 752.125> 832 128<655.875 752.125>
LayerCount: 2
Fore
SplineSet
256 896 m 0
 151 896 64 809 64 704 c 0
 64 599 151 512 256 512 c 0
 289 512 321 521 348 536 c 0
 448 424 l 0
 448 0 l 0
 576 0 l 0
 576 424 l 0
 676 536 l 0
 703 521 735 512 768 512 c 0
 873 512 960 599 960 704 c 0
 960 809 873 896 768 896 c 0
 663 896 576 809 576 704 c 0
 576 679 581 654 590 632 c 0
 512 544 l 0
 434 632 l 0
 443 654 448 679 448 704 c 0
 448 809 361 896 256 896 c 0
256 768 m 0
 292 768 320 740 320 704 c 0
 320 668 292 640 256 640 c 0
 220 640 192 668 192 704 c 0
 192 740 220 768 256 768 c 0
768 768 m 0
 804 768 832 740 832 704 c 0
 832 668 804 640 768 640 c 0
 732 640 704 668 704 704 c 0
 704 740 732 768 768 768 c 0
EndSplineSet
EndChar

StartChar: D
Encoding: 68 68 3
Width: 956
HStem: 0 128<327.923 493.175> 256 128<327.435 494.69> 448 128<327.923 493.175> 704 128<327.435 494.69>
LayerCount: 2
Fore
SplineSet
411 832 m 0
 326 832 253 793 200 757 c 0
 146 722 110 685 110 685 c 0
 64 640 l 0
 110 595 l 0
 110 595 146 558 200 523 c 0
 253 487 326 448 411 448 c 0
 412 448 l 0
 508 450 590 498 667 553 c 0
 744 607 818 669 892 713 c 0
 826 823 l 0
 772 791 723 753 675 718 c 0
 661 730 643 744 623 757 c 0
 569 793 496 832 411 832 c 0
411 704 m 0
 454 704 509 679 552 651 c 0
 557 647 562 643 567 640 c 0
 508 601 455 577 410 576 c 0
 368 576 313 601 271 629 c 0
 265 633 260 636 255 640 c 0
 260 644 265 647 271 651 c 0
 313 679 368 704 411 704 c 0
411 384 m 0
 326 384 253 345 200 309 c 0
 146 274 110 237 110 237 c 0
 64 192 l 0
 110 147 l 0
 110 147 146 110 200 75 c 0
 253 39 326 0 411 0 c 0
 412 0 l 0
 508 2 590 50 667 105 c 0
 744 159 818 221 892 265 c 0
 826 375 l 0
 772 343 723 305 675 270 c 0
 661 282 643 296 623 309 c 0
 569 345 496 384 411 384 c 0
411 256 m 0
 454 256 509 231 552 203 c 0
 557 199 562 195 567 192 c 0
 508 153 455 129 410 128 c 0
 368 128 313 153 271 181 c 0
 265 185 260 188 255 192 c 0
 260 196 265 199 271 203 c 0
 313 231 368 256 411 256 c 0
EndSplineSet
EndChar

StartChar: H
Encoding: 72 72 4
Width: 768
HStem: -256 128<296.412 471.588> 256 384<322.048 445.952>
VStem: 64 128<-23.5885 153.034> 576 128<-23.5885 153.034>
LayerCount: 2
Fore
SplineSet
320 378 m 0
 174 348 64 218 64 64 c 0
 64 -112 208 -256 384 -256 c 0
 560 -256 704 -112 704 64 c 0
 704 218 594 348 448 378 c 0
 448 640 l 0
 320 640 l 0
 320 378 l 0
384 256 m 0
 491 256 576 171 576 64 c 0
 576 -43 491 -128 384 -128 c 0
 277 -128 192 -43 192 64 c 0
 192 171 277 256 384 256 c 0
EndSplineSet
EndChar

StartChar: N
Encoding: 78 78 5
Width: 1024
Flags: H
LayerCount: 2
Fore
SplineSet
512 896 m 0
 265 896 64 695 64 448 c 0
 64 201 265 0 512 0 c 0
 759 0 960 201 960 448 c 0
 960 695 759 896 512 896 c 0
448 762 m 0
 448 134 l 0
 301 164 192 292 192 448 c 0
 192 604 301 732 448 762 c 0
576 762 m 0
 723 732 832 604 832 448 c 0
 832 292 723 164 576 134 c 0
 576 762 l 0
EndSplineSet
EndChar

StartChar: R
Encoding: 82 82 6
Width: 960
VStem: 64 128<384 455.057> 448 128<384 455.057> 768 128<576 663.961>
LayerCount: 2
Fore
SplineSet
576 896 m 0
 521 896 465 882 416 853 c 0
 334 806 278 725 261 633 c 0
 237 628 214 619 192 606 c 0
 113 560 64 476 64 384 c 0
 64 128 l 0
 576 128 l 0
 576 384 l 0
 576 476 527 560 448 606 c 0
 430 616 411 624 392 630 c 0
 405 677 437 717 480 742 c 0
 539 777 613 777 672 742 c 0
 731 708 768 645 768 576 c 0
 768 0 l 0
 896 0 l 0
 896 576 l 0
 896 690 835 796 736 853 c 0
 687 882 631 896 576 896 c 0
310 512 m 0
 317 511 323 511 330 512 c 0
 348 510 367 505 384 495 c 0
 424 472 448 430 448 384 c 0
 448 256 l 0
 192 256 l 0
 192 384 l 0
 192 430 216 472 256 495 c 0
 273 505 292 510 310 512 c 0
EndSplineSet
EndChar

StartChar: S
Encoding: 83 83 7
Width: 1024
Flags: H
LayerCount: 2
Fore
SplineSet
512 896 m 0
 393 896 279 849 195 765 c 0
 111 681 64 567 64 448 c 0
 64 329 111 215 195 131 c 0
 279 47 393 0 512 0 c 0
 631 0 745 47 829 131 c 0
 913 215 960 329 960 448 c 0
 960 567 913 681 829 765 c 0
 745 849 631 896 512 896 c 0
512 768 m 0
 689 768 832 625 832 448 c 0
 832 271 689 128 512 128 c 0
 335 128 192 271 192 448 c 0
 192 625 335 768 512 768 c 0
EndSplineSet
EndChar

StartChar: V
Encoding: 86 86 8
Width: 768
HStem: 0 384<322.048 445.952> 768 128<296.412 471.588>
VStem: 64 128<486.966 663.588> 576 128<486.966 663.588>
LayerCount: 2
Fore
SplineSet
384 896 m 0
 208 896 64 752 64 576 c 0
 64 422 174 292 320 262 c 0
 320 64 l 0
 320 0 l 0
 448 0 l 0
 448 64 l 0
 448 262 l 0
 594 292 704 422 704 576 c 0
 704 752 560 896 384 896 c 0
384 768 m 0
 491 768 576 683 576 576 c 0
 576 469 491 384 384 384 c 0
 277 384 192 469 192 576 c 0
 192 683 277 768 384 768 c 0
EndSplineSet
EndChar

StartChar: O
Encoding: 79 79 9
Width: 256
VStem: 64 128
LayerCount: 2
Fore
SplineSet
64 896 m 0
 64 0 l 0
 192 0 l 0
 192 896 l 0
 64 896 l 0
EndSplineSet
EndChar

StartChar: W
Encoding: 87 87 10
Width: 1023
Flags: W
HStem: 512 128<210.048 255.926 767.926 815.563> 768 128<207.86 303.754 719.8 816.051>
VStem: 831.926 128<655.875 752.125>
LayerCount: 2
Fore
SplineSet
767.92578125 896 m 0
 662.92578125 896 575.92578125 809 575.92578125 704 c 0
 575.92578125 640 l 0
 447.92578125 640 l 0
 447.92578125 704 l 0
 447.92578125 781 400.92578125 852 328.92578125 881 c 0
 306.92578125 891 283.92578125 895 259.92578125 896 c 0
 208.92578125 897 157.92578125 877 119.92578125 840 c 0
 64.92578125 785 48.92578125 702 78.92578125 631 c 0
 107.92578125 559 178.92578125 512 255.92578125 512 c 0
 319.92578125 512 l 0
 319.92578125 0 l 0
 447.92578125 0 l 0
 447.92578125 512 l 0
 575.92578125 512 l 0
 575.92578125 0 l 0
 703.92578125 0 l 0
 703.92578125 512 l 0
 767.92578125 512 l 0
 872.92578125 512 959.92578125 599 959.92578125 704 c 0
 959.92578125 809 872.92578125 896 767.92578125 896 c 0
254.92578125 768 m 0
 263.92578125 768 271.92578125 767 279.92578125 763 c 0
 304.92578125 753 319.92578125 730 319.92578125 704 c 0
 319.92578125 640 l 0
 255.92578125 640 l 0
 229.92578125 640 206.92578125 655 196.92578125 680 c 0
 186.92578125 704 191.92578125 731 210.92578125 749 c 0
 222.92578125 761 238.92578125 768 254.92578125 768 c 0
767.92578125 768 m 0
 803.92578125 768 831.92578125 740 831.92578125 704 c 0
 831.92578125 668 803.92578125 640 767.92578125 640 c 0
 703.92578125 640 l 0
 703.92578125 704 l 0
 703.92578125 740 731.92578125 768 767.92578125 768 c 0
EndSplineSet
EndChar

StartChar: U
Encoding: 85 85 11
Width: 440
Flags: W
LayerCount: 2
Fore
SplineSet
145.692382812 896 m 0
 77.6923828125 777 55.6923828125 683 66.6923828125 603 c 0
 79.6923828125 515 131.692382812 455 171.692382812 407 c 0
 211.692382812 359 239.692382812 323 246.692382812 275 c 0
 253.692382812 227 241.692382812 155 165.692382812 34 c 0
 144.692382812 0 l 0
 294.692382812 0 l 0
 363.692382812 119 385.692382812 213 373.692382812 293 c 0
 360.692382812 381 309.692382812 441 269.692382812 489 c 0
 229.692382812 537 200.692382812 573 193.692382812 621 c 0
 186.692382812 669 198.692382812 741 274.692382812 862 c 0
 295.692382812 896 l 0
 145.692382812 896 l 0
EndSplineSet
EndChar

StartChar: Z
Encoding: 90 90 12
Width: 1024
HStem: 768 128<249.176 391.861 632.139 774.824>
VStem: 64 128<640 709.947> 448 128<640 711.701> 832 128<640 709.947>
CounterMasks: 1 70
LayerCount: 2
Fore
SplineSet
320 896 m 0
 179 896 64 781 64 640 c 0
 192 640 l 0
 192 711 249 768 320 768 c 0
 391 768 448 711 448 640 c 0
 448 0 l 0
 576 0 l 0
 576 640 l 0
 576 711 633 768 704 768 c 0
 775 768 832 711 832 640 c 0
 960 640 l 0
 960 781 845 896 704 896 c 0
 628 896 559 862 512 809 c 0
 465 862 396 896 320 896 c 0
EndSplineSet
EndChar

StartChar: b
Encoding: 98 98 13
Width: 768
HStem: 0 128<207.875 304.125> 512 128<377.176 518.824>
VStem: 64 128<143.875 240.719> 192 128<364.272 373 384 453.947> 320 128<143.875 240.719> 576 128<384 453.947>
LayerCount: 2
Fore
SplineSet
448 640 m 0xcc
 307 640 192 525 192 384 c 0
 192 373 l 0xd4
 118 346 64 275 64 192 c 0
 64 87 151 0 256 0 c 0
 361 0 448 87 448 192 c 0xec
 448 275 394 346 320 373 c 0
 320 384 l 0xd4
 320 455 377 512 448 512 c 0
 519 512 576 455 576 384 c 0
 576 0 l 0
 704 0 l 0
 704 384 l 0
 704 525 589 640 448 640 c 0xcc
256 256 m 0
 292 256 320 228 320 192 c 0
 320 156 292 128 256 128 c 0
 220 128 192 156 192 192 c 0xec
 192 228 220 256 256 256 c 0
EndSplineSet
EndChar

StartChar: y
Encoding: 121 121 14
Width: 783
LayerCount: 2
Fore
SplineSet
576 640 m 0
 392 271 l 0
 207 640 l 0
 64 640 l 0
 392 -15 l 0
 719 640 l 0
 576 640 l 0
EndSplineSet
EndChar

StartChar: c
Encoding: 99 99 15
Width: 1024
HStem: 256 128<207.875 304.432 719.568 816.125> 512 128<207.875 304.125 719.875 816.125>
VStem: 64 128<399.875 496.125> 320 128<399.508 496.125> 576 128<399.508 496.125> 832 128<399.875 496.125>
LayerCount: 2
Fore
SplineSet
256 640 m 0
 151 640 64 553 64 448 c 0
 64 343 151 256 256 256 c 0
 289 256 321 265 348 280 c 0
 448 168 l 0
 448 0 l 0
 576 0 l 0
 576 168 l 0
 676 280 l 0
 703 265 735 256 768 256 c 0
 873 256 960 343 960 448 c 0
 960 553 873 640 768 640 c 0
 663 640 576 553 576 448 c 0
 576 423 581 398 590 376 c 0
 512 288 l 0
 434 376 l 0
 443 398 448 423 448 448 c 0
 448 553 361 640 256 640 c 0
256 512 m 0
 292 512 320 484 320 448 c 0
 320 412 292 384 256 384 c 0
 220 384 192 412 192 448 c 0
 192 484 220 512 256 512 c 0
768 512 m 0
 804 512 832 484 832 448 c 0
 832 412 804 384 768 384 c 0
 732 384 704 412 704 448 c 0
 704 484 732 512 768 512 c 0
EndSplineSet
EndChar

StartChar: g
Encoding: 103 103 16
Width: 768
LayerCount: 2
Fore
SplineSet
64 640 m 0
 304 320 l 0
 64 0 l 0
 224 0 l 0
 384 213 l 0
 544 0 l 0
 704 0 l 0
 464 320 l 0
 704 640 l 0
 544 640 l 0
 384 427 l 0
 224 640 l 0
 64 640 l 0
EndSplineSet
EndChar

StartChar: m
Encoding: 109 109 17
Width: 895
Flags: W
HStem: 0 128<383.817 471.861>
LayerCount: 2
Fore
SplineSet
385.817382812 640 m 0
 281.817382812 640 179.817382812 590 118.817382812 499 c 0
 33.8173828125 373 48.8173828125 204 155.817382812 95 c 0
 246.817382812 185 l 0
 182.817382812 251 172.817382812 351 224.817382812 428 c 0
 275.817382812 504 372.817382812 533 457.817382812 497 c 0
 542.817382812 462 589.817382812 372 571.817382812 282 c 0
 553.817382812 192 475.817382812 128 383.817382812 128 c 0
 383.817382812 0 l 0
 447.817382812 0 l 0
 767.817382812 0 l 0
 831.817382812 0 l 0
 831.817382812 128 l 0
 767.817382812 128 l 0
 639.817382812 128 l 0
 667.817382812 165 687.817382812 209 697.817382812 257 c 0
 727.817382812 406 647.817382812 557 507.817382812 615 c 0
 467.817382812 632 426.817382812 640 385.817382812 640 c 0
EndSplineSet
EndChar

StartChar: d
Encoding: 100 100 18
Width: 956
HStem: 0 128<327.923 493.175> 256 128<327.435 494.69>
LayerCount: 2
Fore
SplineSet
411 384 m 0
 326 384 253 345 200 309 c 0
 146 274 110 237 110 237 c 0
 64 192 l 0
 110 147 l 0
 110 147 146 110 200 75 c 0
 253 39 326 0 411 0 c 0
 412 0 l 0
 508 2 590 50 667 105 c 0
 744 159 818 221 892 265 c 0
 826 375 l 0
 772 343 723 305 675 270 c 0
 661 282 643 296 623 309 c 0
 569 345 496 384 411 384 c 0
411 256 m 0
 454 256 509 231 552 203 c 0
 557 199 562 195 567 192 c 0
 508 153 455 129 410 128 c 0
 368 128 313 153 271 181 c 0
 265 185 260 188 255 192 c 0
 260 196 265 199 271 203 c 0
 313 231 368 256 411 256 c 0
EndSplineSet
EndChar

StartChar: h
Encoding: 104 104 19
Width: 512
HStem: 0 128<207.875 304.125> 256 384<207.386 304.614>
VStem: 64 128<143.875 240.719> 192 128<364.272 640> 320 128<143.875 240.719>
LayerCount: 2
Fore
SplineSet
256 0 m 0xc8
 151 0 64 87 64 192 c 0xe8
 64 275 118 346 192 373 c 0
 192 576 l 0
 192 640 l 0
 320 640 l 0
 320 576 l 0
 320 373 l 0xd0
 394 346 448 275 448 192 c 0
 448 87 361 0 256 0 c 0xc8
256 128 m 0
 292 128 320 156 320 192 c 0
 320 228 292 256 256 256 c 0
 220 256 192 228 192 192 c 0
 192 156 220 128 256 128 c 0
EndSplineSet
EndChar

StartChar: i
Encoding: 105 105 20
Width: 783
LayerCount: 2
Fore
SplineSet
392 655 m 0
 64 0 l 0
 207 0 l 0
 392 369 l 0
 576 0 l 0
 719 0 l 0
 392 655 l 0
EndSplineSet
EndChar

StartChar: k
Encoding: 107 107 21
Width: 703
Flags: W
HStem: 0 128<320 407.961> 512 128<320 407.961>
LayerCount: 2
Fore
SplineSet
64 640 m 0
 64 0 l 0
 320 0 l 0
 434 0 540 61 597 160 c 0
 654 259 654 381 597 480 c 0
 540 579 434 640 320 640 c 0
 235 640 64 640 64 640 c 0
192 512 m 0
 320 512 l 0
 389 512 452 475 486 416 c 0
 521 357 521 283 486 224 c 0
 452 165 389 128 320 128 c 0
 277 128 192 128 192 128 c 0
 192 512 l 0
EndSplineSet
EndChar

StartChar: l
Encoding: 108 108 22
Width: 512
HStem: -128 128<207.875 304.125>
LayerCount: 2
Fore
SplineSet
64 640 m 0
 64 64 l 0
 64 -41 151 -128 256 -128 c 0
 361 -128 448 -41 448 64 c 0
 320 64 l 0
 320 28 292 0 256 0 c 0
 220 0 192 28 192 64 c 0
 192 640 l 0
 64 640 l 0
EndSplineSet
EndChar

StartChar: f
Encoding: 102 102 23
Width: 512
VStem: 64 128<238.825 404.118> 320 128<237.435 404.69>
LayerCount: 2
Fore
SplineSet
301 622 m 0
 327 594 338 586 373 533 c 0
 409 479 448 406 448 321 c 0
 448 236 409 163 373 110 c 0
 360 89 346 71 334 57 c 0
 369 9 407 -40 439 -94 c 0
 329 -160 l 0
 285 -86 223 -12 169 65 c 0
 114 142 66 224 64 320 c 0
 64 321 l 0
 64 406 103 479 139 533 c 0
 174 586 185 594 211 622 c 0
 225 638 256 668 256 668 c 0
 256 668 287 638 301 622 c 0
245 462 m 0
 217 419 192 364 192 322 c 0
 193 277 217 224 256 165 c 0
 259 170 263 175 267 181 c 0
 295 223 320 278 320 321 c 0
 320 364 295 419 267 462 c 0
 263 467 260 472 256 477 c 0
 252 472 249 467 245 462 c 0
EndSplineSet
EndChar

StartChar: p
Encoding: 112 112 24
Width: 640
VStem: 64 128<0 454.608> 448 128<0 454.608>
LayerCount: 2
Fore
SplineSet
320 640 m 0
 276 640 232 628 192 605 c 0
 113 560 65 475 65 384 c 0
 64 384 l 0
 64 0 l 0
 192 0 l 0
 192 384 l 0
 192 430 216 472 256 495 c 0
 296 518 344 518 384 495 c 0
 424 472 448 430 448 384 c 0
 448 0 l 0
 576 0 l 0
 576 384 l 0
 575 384 l 0
 575 475 527 560 448 605 c 0
 408 628 364 640 320 640 c 0
EndSplineSet
EndChar

StartChar: r
Encoding: 114 114 25
Width: 640
Flags: H
LayerCount: 2
Fore
SplineSet
320 640 m 0
 276 640 232 628 192 605 c 0
 113 560 65 475 65 384 c 0
 64 384 l 0
 64 0 l 0
 128 0 l 0
 192 0 l 0
 448 0 l 0
 576 0 l 0
 576 128 l 0
 576 384 l 0
 575 384 l 0
 575 475 527 560 448 605 c 0
 408 628 364 640 320 640 c 0
320 512 m 0
 342 512 364 507 384 495 c 0
 424 472 448 430 448 384 c 0
 448 128 l 0
 192 128 l 0
 192 384 l 0
 192 430 216 472 256 495 c 0
 276 507 298 512 320 512 c 0
EndSplineSet
EndChar

StartChar: s
Encoding: 115 115 26
Width: 768
Flags: H
LayerCount: 2
Fore
SplineSet
384 640 m 0
 208 640 64 496 64 320 c 0
 64 144 208 0 384 0 c 0
 560 0 704 144 704 320 c 0
 704 496 560 640 384 640 c 0
384 512 m 0
 491 512 576 427 576 320 c 0
 576 213 491 128 384 128 c 0
 277 128 192 213 192 320 c 0
 192 427 277 512 384 512 c 0
EndSplineSet
EndChar

StartChar: v
Encoding: 118 118 27
Width: 512
HStem: 0 384<207.386 304.614> 512 128<207.875 304.125>
VStem: 64 128<399.281 496.125> 320 128<399.281 496.125>
LayerCount: 2
Fore
SplineSet
256 640 m 0
 151 640 64 553 64 448 c 0
 64 365 118 294 192 267 c 0
 192 64 l 0
 192 0 l 0
 320 0 l 0
 320 64 l 0
 320 267 l 0
 394 294 448 365 448 448 c 0
 448 553 361 640 256 640 c 0
256 512 m 0
 292 512 320 484 320 448 c 0
 320 412 292 384 256 384 c 0
 220 384 192 412 192 448 c 0
 192 484 220 512 256 512 c 0
EndSplineSet
EndChar

StartChar: o
Encoding: 111 111 28
Width: 256
VStem: 64 128
LayerCount: 2
Fore
SplineSet
64 640 m 0
 64 0 l 0
 192 0 l 0
 192 640 l 0
 64 640 l 0
EndSplineSet
EndChar

StartChar: w
Encoding: 119 119 29
Width: 1023
Flags: W
HStem: 256 128<210.048 255.926 767.926 815.563> 512 128<207.86 303.754 719.8 816.051>
VStem: 831.926 128<399.875 496.125>
LayerCount: 2
Fore
SplineSet
767.92578125 640 m 0
 662.92578125 640 575.92578125 553 575.92578125 448 c 0
 575.92578125 384 l 0
 447.92578125 384 l 0
 447.92578125 448 l 0
 447.92578125 525 400.92578125 596 328.92578125 625 c 0
 306.92578125 635 283.92578125 639 259.92578125 640 c 0
 208.92578125 641 157.92578125 621 119.92578125 584 c 0
 64.92578125 529 48.92578125 446 78.92578125 375 c 0
 107.92578125 303 178.92578125 256 255.92578125 256 c 0
 319.92578125 256 l 0
 319.92578125 0 l 0
 447.92578125 0 l 0
 447.92578125 256 l 0
 575.92578125 256 l 0
 575.92578125 0 l 0
 703.92578125 0 l 0
 703.92578125 256 l 0
 767.92578125 256 l 0
 872.92578125 256 959.92578125 343 959.92578125 448 c 0
 959.92578125 553 872.92578125 640 767.92578125 640 c 0
254.92578125 512 m 0
 263.92578125 512 271.92578125 511 279.92578125 507 c 0
 304.92578125 497 319.92578125 474 319.92578125 448 c 0
 319.92578125 384 l 0
 255.92578125 384 l 0
 229.92578125 384 206.92578125 399 196.92578125 424 c 0
 186.92578125 448 191.92578125 475 210.92578125 493 c 0
 222.92578125 505 238.92578125 512 254.92578125 512 c 0
767.92578125 512 m 0
 803.92578125 512 831.92578125 484 831.92578125 448 c 0
 831.92578125 412 803.92578125 384 767.92578125 384 c 0
 703.92578125 384 l 0
 703.92578125 448 l 0
 703.92578125 484 731.92578125 512 767.92578125 512 c 0
EndSplineSet
EndChar

StartChar: n
Encoding: 110 110 30
Width: 768
Flags: H
LayerCount: 2
Fore
SplineSet
384 640 m 0
 208 640 64 496 64 320 c 0
 64 144 208 0 384 0 c 0
 560 0 704 144 704 320 c 0
 704 496 560 640 384 640 c 0
320 501 m 0
 320 139 l 0
 245 165 192 236 192 320 c 0
 192 404 245 475 320 501 c 0
448 501 m 0
 523 475 576 404 576 320 c 0
 576 236 523 165 448 139 c 0
 448 501 l 0
EndSplineSet
EndChar

StartChar: a
Encoding: 97 97 31
Width: 768
HStem: 0 128<295.266 471.588>
VStem: 576 128<232.412 408.734>
LayerCount: 2
Fore
SplineSet
320 640 m 0
 320 576 l 0
 320 469 235 384 128 384 c 0
 64 384 l 0
 64 320 l 0
 64 144 208 0 384 0 c 0
 560 0 704 144 704 320 c 0
 704 496 560 640 384 640 c 0
 320 640 l 0
440 504 m 0
 519 480 576 407 576 320 c 0
 576 213 491 128 384 128 c 0
 297 128 224 185 200 264 c 0
 318 292 412 386 440 504 c 0
EndSplineSet
EndChar

StartChar: A
Encoding: 65 65 32
Width: 1032
HStem: 0 128<407.126 634.634>
VStem: 840 128<333.16 560.837>
LayerCount: 2
Fore
SplineSet
502 904 m 0
 516 817 l 0
 519 801 520 784 520 768 c 0
 520 591 378 448 200 448 c 0
 184 448 167 450 151 452 c 0
 64 467 l 0
 78 379 l 0
 111 162 300 0 520 0 c 0
 767 0 968 201 968 448 c 0
 968 668 806 856 589 890 c 0
 502 904 l 0
647 741 m 0
 762 692 840 578 840 448 c 0
 840 270 697 128 520 128 c 0
 390 128 276 206 227 321 c 0
 452 334 634 516 647 741 c 0
EndSplineSet
EndChar

StartChar: q
Encoding: 113 113 33
Width: 960
HStem: 0 128<64 151.832 704 751.637> 256 128<655.365 752.125> 512 128<64 151.345>
VStem: 256 128<230.808 407.588> 768 128<143.875 240.125>
CounterMasks: 1 e0
LayerCount: 2
Fore
SplineSet
64 640 m 0
 64 512 l 0
 171 512 256 427 256 320 c 0
 256 213 171 128 64 128 c 0
 64 0 l 0
 128 0 l 0
 640 0 l 0
 704 0 l 0
 809 0 896 87 896 192 c 0
 896 297 809 384 704 384 c 0
 682 384 660 380 640 373 c 0
 640 576 l 0
 640 640 l 0
 512 640 l 0
 512 576 l 0
 512 192 l 0
 512 128 l 0
 320 128 l 0
 360 182 384 248 384 320 c 0
 384 496 240 640 64 640 c 0
704 256 m 0
 740 256 768 228 768 192 c 0
 768 156 740 128 704 128 c 0
 640 128 l 0
 640 192 l 0
 640 228 668 256 704 256 c 0
EndSplineSet
EndChar

StartChar: Q
Encoding: 81 81 34
Width: 1088
HStem: 0 128<64 177.061> 128 128<616.355 791.588> 640 128<616.355 791.588> 768 128<64 177.061>
VStem: 384 128<360.168 535.832> 896 128<360.412 535.588>
LayerCount: 2
Fore
SplineSet
64 896 m 0x1c
 64 768 l 0
 178 768 284 707 341 608 c 0
 369 559 384 505 384 451 c 0
 384 450 384 449 384 448 c 0
 384 447 384 446 384 445 c 0
 384 391 369 337 341 288 c 0
 284 189 178 128 64 128 c 0
 64 0 l 0x9c
 224 0 372 85 452 224 c 0
 455 229 458 235 461 240 c 0
 520 172 607 128 704 128 c 0
 880 128 1024 272 1024 448 c 0
 1024 624 880 768 704 768 c 0x6c
 607 768 520 724 461 656 c 0
 458 661 455 667 452 672 c 0
 372 811 224 896 64 896 c 0x1c
704 640 m 0x6c
 811 640 896 555 896 448 c 0
 896 341 811 256 704 256 c 0
 597 256 512 341 512 448 c 0
 512 555 597 640 704 640 c 0x6c
EndSplineSet
EndChar

StartChar: E
Encoding: 69 69 35
Width: 728
LayerCount: 2
Fore
SplineSet
520 896 m 0
 79 29 l 0
 64 0 l 0
 208 0 l 0
 641 851 l 0
 664 896 l 0
 520 896 l 0
EndSplineSet
EndChar

StartChar: e
Encoding: 101 101 36
Width: 597
LayerCount: 2
Fore
SplineSet
390 640 m 0
 79 29 l 0
 64 0 l 0
 208 0 l 0
 533 640 l 0
 390 640 l 0
EndSplineSet
EndChar

StartChar: P
Encoding: 80 80 37
Width: 768
VStem: 64 128<576 663.961> 576 128<576 663.961>
LayerCount: 2
Fore
SplineSet
384 896 m 0
 329 896 273 882 224 853 c 0
 125 796 64 690 64 576 c 0
 64 64 l 0
 64 0 l 0
 192 0 l 0
 192 64 l 0
 192 576 l 0
 192 645 229 708 288 742 c 0
 347 777 421 777 480 742 c 0
 539 708 576 645 576 576 c 0
 576 64 l 0
 576 0 l 0
 704 0 l 0
 704 64 l 0
 704 576 l 0
 704 690 643 796 544 853 c 0
 495 882 439 896 384 896 c 0
EndSplineSet
EndChar

StartChar: Y
Encoding: 89 89 38
Width: 1039
LayerCount: 2
Fore
SplineSet
64 896 m 0
 520 -15 l 0
 975 896 l 0
 832 896 l 0
 584 399 l 0
 584 832 l 0
 584 896 l 0
 456 896 l 0
 456 832 l 0
 456 399 l 0
 207 896 l 0
 64 896 l 0
EndSplineSet
EndChar

StartChar: G
Encoding: 71 71 39
Width: 736
LayerCount: 2
Fore
SplineSet
64 896 m 0
 87 851 l 0
 296 440 l 0
 87 29 l 0
 72 0 l 0
 216 0 l 0
 368 299 l 0
 520 0 l 0
 664 0 l 0
 649 29 l 0
 440 440 l 0
 649 851 l 0
 672 896 l 0
 528 896 l 0
 368 581 l 0
 207 896 l 0
 64 896 l 0
EndSplineSet
EndChar

StartChar: M
Encoding: 77 77 40
Width: 1023
Flags: W
HStem: 0 128<511.543 627.328>
LayerCount: 2
Fore
SplineSet
512.54296875 896 m 0
 366.54296875 896 224.54296875 824 139.54296875 697 c 0
 20.54296875 520 44.54296875 282 194.54296875 131 c 0
 285.54296875 222 l 0
 177.54296875 330 160.54296875 499 245.54296875 626 c 0
 330.54296875 753 492.54296875 802 634.54296875 744 c 0
 775.54296875 685 855.54296875 536 825.54296875 386 c 0
 795.54296875 235 664.54296875 128 511.54296875 128 c 0
 511.54296875 0 l 0
 575.54296875 0 l 0
 895.54296875 0 l 0
 959.54296875 0 l 0
 959.54296875 128 l 0
 895.54296875 128 l 0
 824.54296875 128 l 0
 887.54296875 189 932.54296875 270 951.54296875 361 c 0
 992.54296875 570 880.54296875 780 683.54296875 862 c 0
 627.54296875 885 569.54296875 896 512.54296875 896 c 0
EndSplineSet
EndChar

StartChar: I
Encoding: 73 73 41
Width: 1039
LayerCount: 2
Fore
SplineSet
520 911 m 0
 64 0 l 0
 207 0 l 0
 520 625 l 0
 832 0 l 0
 975 0 l 0
 520 911 l 0
EndSplineSet
EndChar

StartChar: z
Encoding: 122 122 42
Width: 768
HStem: 512 128<207.875 304.721 463.279 560.125>
LayerCount: 2
Fore
SplineSet
256 640 m 0
 151 640 64 553 64 448 c 0
 192 448 l 0
 192 484 220 512 256 512 c 0
 292 512 320 484 320 448 c 0
 320 384 l 0
 320 64 l 0
 320 0 l 0
 448 0 l 0
 448 64 l 0
 448 384 l 0
 448 448 l 0
 448 484 476 512 512 512 c 0
 548 512 576 484 576 448 c 0
 704 448 l 0
 704 553 617 640 512 640 c 0
 463 640 418 621 384 591 c 0
 350 621 305 640 256 640 c 0
EndSplineSet
EndChar

StartChar: u
Encoding: 117 117 43
Width: 387
Flags: W
LayerCount: 2
Fore
SplineSet
119.401367188 640 m 0
 73.4013671875 557 57.4013671875 488 66.4013671875 428 c 0
 76.4013671875 359 116.401367188 313 144.401367188 279 c 0
 173.401367188 245 190.401367188 222 195.401367188 194 c 0
 199.401367188 165 192.401367188 118 139.401367188 34 c 0
 118.401367188 0 l 0
 268.401367188 0 l 0
 314.401367188 83 330.401367188 152 321.401367188 212 c 0
 311.401367188 281 271.401367188 327 243.401367188 361 c 0
 214.401367188 395 197.401367188 418 193.401367188 446 c 0
 188.401367188 475 195.401367188 522 248.401367188 606 c 0
 269.401367188 640 l 0
 119.401367188 640 l 0
EndSplineSet
EndChar

StartChar: j
Encoding: 106 106 44
Width: 512
HStem: 512 128<207.875 304.125>
LayerCount: 2
Fore
SplineSet
256 640 m 0
 151 640 64 553 64 448 c 0
 192 448 l 0
 192 484 220 512 256 512 c 0
 292 512 320 484 320 448 c 0
 320 384 l 0
 320 64 l 0
 320 0 l 0
 448 0 l 0
 448 64 l 0
 448 384 l 0
 448 448 l 0
 448 553 361 640 256 640 c 0
EndSplineSet
EndChar

StartChar: t
Encoding: 116 116 45
Width: 639
VStem: 64 127<505.392 576> 447 128<505.392 576>
LayerCount: 2
Fore
SplineSet
64 640 m 0
 64 576 l 0
 64 485 113 400 192 355 c 0
 213 343 235 334 258 328 c 0
 258 320 l 0
 258 64 l 0
 258 0 l 0
 386 0 l 0
 386 64 l 0
 386 320 l 0
 386 330 l 0
 407 335 428 344 447 355 c 0
 526 400 575 485 575 576 c 0
 575 640 l 0
 447 640 l 0
 447 576 l 0
 447 530 423 488 383 465 c 0
 344 442 295 442 255 465 c 0
 216 488 191 530 191 576 c 0
 191 640 l 0
 64 640 l 0
EndSplineSet
EndChar

StartChar: T
Encoding: 84 84 46
Width: 911
LayerCount: 2
Fore
SplineSet
64 896 m 0
 407 427 l 0
 407 0 l 0
 535 0 l 0
 535 429 l 0
 847 896 l 0
 693 896 l 0
 469 560 l 0
 222 896 l 0
 64 896 l 0
EndSplineSet
EndChar

StartChar: K
Encoding: 75 75 47
Width: 896
HStem: 0 128<384 495.821> 768 128<384 495.821>
VStem: 704 128<333.366 562.634>
LayerCount: 2
Fore
SplineSet
64 896 m 0
 64 832 l 0
 64 0 l 0
 384 0 l 0
 631 0 832 201 832 448 c 0
 832 695 631 896 384 896 c 0
 64 896 l 0
192 768 m 0
 384 768 l 0
 561 768 704 625 704 448 c 0
 704 271 561 128 384 128 c 0
 192 128 l 0
 192 768 l 0
EndSplineSet
EndChar

StartChar: L
Encoding: 76 76 48
Width: 640
HStem: 0 128<249.176 390.824>
VStem: 64 128<186.053 256> 448 128<186.053 256>
LayerCount: 2
Fore
SplineSet
64 896 m 0
 64 832 l 0
 64 320 l 0
 64 256 l 0
 64 115 179 0 320 0 c 0
 461 0 576 115 576 256 c 0
 448 256 l 0
 448 185 391 128 320 128 c 0
 249 128 192 185 192 256 c 0
 192 320 l 0
 192 832 l 0
 192 896 l 0
 64 896 l 0
EndSplineSet
EndChar

StartChar: F
Encoding: 70 70 49
Width: 672
VStem: 64 128<370.574 593.075> 480 128<366.933 593.01>
LayerCount: 2
Fore
SplineSet
336 987 m 0
 291 941 l 0
 291 941 234 885 179 801 c 0
 123 718 64 605 64 480 c 0
 64 479 l 0
 66 338 135 217 217 100 c 0
 299 -17 396 -131 470 -256 c 0
 580 -190 l 0
 528 -102 468 -23 411 52 c 0
 433 76 463 113 493 158 c 0
 549 242 608 355 608 480 c 0
 608 605 549 718 493 801 c 0
 438 885 381 941 381 941 c 0
 336 987 l 0
336 799 m 0
 351 780 369 757 387 730 c 0
 435 658 480 563 480 480 c 0
 480 397 435 302 387 229 c 0
 368 201 349 177 333 157 c 0
 330 163 326 168 322 173 c 0
 245 283 194 382 192 481 c 0
 192 563 237 658 285 730 c 0
 303 757 321 780 336 799 c 0
EndSplineSet
EndChar

StartChar: 0
Encoding: 48 48 50
Width: 640
Flags: H
LayerCount: 2
Fore
SplineSet
64 896 m 0
 64 0 l 0
 192 0 l 0
 192 896 l 0
 64 896 l 0
448 576 m 0
 377 576 320 519 320 448 c 0
 320 377 377 320 448 320 c 0
 519 320 576 377 576 448 c 0
 576 519 519 576 448 576 c 0
EndSplineSet
EndChar

StartChar: 1
Encoding: 49 49 51
Width: 640
Flags: H
LayerCount: 2
Fore
SplineSet
64 896 m 0
 64 0 l 0
 320 0 l 0
 430 0 503 41 539 90 c 0
 575 138 576 192 576 192 c 0
 576 256 l 0
 448 256 l 0
 448 192 l 0
 448 192 449 182 437 166 c 0
 425 151 402 128 320 128 c 0
 192 128 l 0
 192 896 l 0
 64 896 l 0
EndSplineSet
EndChar

StartChar: 2
Encoding: 50 50 52
Width: 642
Flags: H
LayerCount: 2
Fore
SplineSet
64 896 m 0
 64 0 l 0
 192 0 l 0
 192 431 l 0
 432 0 l 0
 578 0 l 0
 329 448 l 0
 578 896 l 0
 432 896 l 0
 192 465 l 0
 192 896 l 0
 64 896 l 0
EndSplineSet
EndChar

StartChar: 3
Encoding: 51 51 53
Width: 642
Flags: H
LayerCount: 2
Fore
SplineSet
64 896 m 0
 64 0 l 0
 256 0 l 0
 363 0 445 28 499 78 c 0
 554 127 576 195 576 256 c 0
 576 318 554 386 499 436 c 0
 463 467 417 490 359 502 c 0
 578 896 l 0
 432 896 l 0
 192 465 l 0
 192 896 l 0
 64 896 l 0
192 384 m 0
 256 384 l 0
 341 384 388 363 413 340 c 0
 438 318 448 290 448 256 c 0
 448 224 438 196 413 173 c 0
 387 149 341 128 256 128 c 0
 192 128 l 0
 192 384 l 0
EndSplineSet
EndChar

StartChar: 4
Encoding: 52 52 54
Width: 640
Flags: H
LayerCount: 2
Fore
SplineSet
64 896 m 0
 64 0 l 0
 192 0 l 0
 192 768 l 0
 576 768 l 0
 576 896 l 0
 64 896 l 0
EndSplineSet
EndChar

StartChar: 5
Encoding: 53 53 55
Width: 640
Flags: H
LayerCount: 2
Fore
SplineSet
64 896 m 0
 64 0 l 0
 320 0 l 0
 430 0 503 41 539 90 c 0
 575 138 576 192 576 192 c 0
 576 256 l 0
 448 256 l 0
 448 192 l 0
 448 192 449 182 437 166 c 0
 425 151 402 128 320 128 c 0
 192 128 l 0
 192 768 l 0
 576 768 l 0
 576 896 l 0
 64 896 l 0
EndSplineSet
EndChar

StartChar: 6
Encoding: 54 54 56
Width: 642
Flags: H
LayerCount: 2
Fore
SplineSet
64 896 m 4
 64 0 l 0
 192 0 l 0
 192 431 l 0
 432 0 l 0
 578 0 l 0
 359 394 l 0
 417 406 463 429 499 460 c 0
 554 510 576 578 576 640 c 0
 576 701 554 769 499 818 c 0
 445 868 363 896 256 896 c 4
 64 896 l 4
192 768 m 0
 256 768 l 0
 341 768 387 747 413 723 c 0
 438 700 448 672 448 640 c 0
 448 606 438 578 413 556 c 0
 388 533 341 512 256 512 c 0
 192 512 l 0
 192 768 l 0
EndSplineSet
EndChar

StartChar: 7
Encoding: 55 55 57
Width: 640
Flags: H
LayerCount: 2
Fore
SplineSet
64 896 m 0
 64 0 l 0
 256 0 l 0
 363 0 444 27 499 77 c 0
 554 126 576 194 576 256 c 0
 576 318 554 386 499 435 c 0
 494 440 489 444 483 448 c 0
 489 452 494 456 498 461 c 0
 553 510 575 578 576 639 c 0
 577 701 554 769 499 818 c 0
 445 868 363 896 256 896 c 0
 64 896 l 0
192 768 m 0
 256 768 l 0
 341 768 388 747 413 723 c 0
 439 700 448 672 448 641 c 0
 448 607 438 578 413 556 c 0
 387 533 341 512 256 512 c 0
 256 384 l 0
 341 384 388 363 413 340 c 0
 438 318 448 290 448 256 c 0
 448 222 438 194 413 172 c 0
 388 149 341 128 256 128 c 0
 192 128 l 0
 192 768 l 0
EndSplineSet
EndChar

StartChar: 8
Encoding: 56 56 58
Width: 640
Flags: H
LayerCount: 2
Fore
SplineSet
64 896 m 0
 64 0 l 0
 192 0 l 0
 192 384 l 0
 256 384 l 0
 364 384 446 416 500 466 c 0
 553 516 576 582 576 640 c 0
 576 701 554 769 499 818 c 0
 445 868 363 896 256 896 c 0
 64 896 l 0
192 768 m 0
 256 768 l 0
 341 768 387 747 413 723 c 0
 438 700 448 672 448 640 c 0
 448 614 439 584 412 559 c 0
 386 535 340 512 256 512 c 0
 192 512 l 0
 192 768 l 0
EndSplineSet
EndChar

StartChar: 9
Encoding: 57 57 59
Width: 640
Flags: H
LayerCount: 2
Fore
SplineSet
64 896 m 0
 64 0 l 0
 320 0 l 0
 430 0 503 41 539 90 c 0
 575 138 576 192 576 192 c 0
 576 256 l 0
 448 256 l 0
 448 192 l 0
 448 192 449 182 437 166 c 0
 425 151 402 128 320 128 c 0
 192 128 l 0
 192 384 l 0
 256 384 l 0
 363 384 444 411 499 460 c 0
 554 510 576 578 576 640 c 0
 576 701 554 769 499 818 c 0
 445 868 363 896 256 896 c 0
 64 896 l 0
192 768 m 0
 256 768 l 0
 341 768 387 747 413 723 c 0
 438 700 448 672 448 640 c 0
 448 606 438 578 413 556 c 0
 388 533 341 512 256 512 c 0
 192 512 l 0
 192 768 l 0
EndSplineSet
EndChar

StartChar: J
Encoding: 74 74 60
Width: 959
Flags: W
VStem: 767.095 128<447 563.764>
LayerCount: 2
Fore
SplineSet
463.094726562 890 m 0
 344.094726562 891 226.094726562 842 146.094726562 741 c 0
 23.0947265625 587 36.0947265625 349 200.094726562 225 c 0
 333.094726562 123 538.094726562 136 641.094726562 281 c 0
 722.094726562 395 708.094726562 568 580.094726562 647 c 0
 487.094726562 706 364.094726562 682 312.094726562 589 c 0
 277.094726562 525 284.094726562 438 346.094726562 382 c 0
 436.094726562 472 l 0
 418.094726562 487 415.094726562 511 424.094726562 527 c 0
 439.094726562 549 479.094726562 559 512.094726562 539 c 0
 571.094726562 502 578.094726562 413 537.094726562 355 c 0
 479.094726562 274 357.094726562 266 277.094726562 327 c 0
 174.094726562 405 166.094726562 561 246.094726562 661 c 0
 343.094726562 784 531.094726562 793 652.094726562 694 c 0
 724.094726562 635 766.094726562 542 767.094726562 447 c 0
 767.094726562 384 l 0
 767.094726562 64 l 0
 767.094726562 0 l 0
 895.094726562 0 l 0
 895.094726562 64 l 0
 895.094726562 384 l 0
 895.094726562 448 l 0
 895.094726562 448 895.094726562 449 895.094726562 449 c 0
 893.094726562 581 836.094726562 708 733.094726562 793 c 0
 657.094726562 856 563.094726562 888 469.094726562 890 c 0
 467.094726562 890 465.094726562 890 463.094726562 890 c 0
EndSplineSet
EndChar

StartChar: Scircumflex
Encoding: 348 348 61
Width: 1024
VWidth: 0
HStem: 0 21G<448 576> 0 21G<448 576> 512 128<192 448 576 832> 768 128<249.143 392 632 774.857>
VStem: 64 128<640 709.815> 448 128<0 512 640 711.899> 832 128<640 709.815>
CounterMasks: 1 0e
LayerCount: 2
Fore
SplineSet
320 896 m 0xbe
 396.196289062 896 464.967773438 862.119140625 512 808.7109375 c 1
 559.032226562 862.119140625 627.803710938 896 704 896 c 0
 844.626953125 896 960 780.626953125 960 640 c 2
 960 512 l 1
 832 512 704 512 576 512 c 1
 576 0 l 1
 448 0 l 1
 448 512 l 1
 64 512 l 1
 64 640 l 2
 64 780.626953125 179.373046875 896 320 896 c 0xbe
320 768 m 0
 248.549804688 768 192 711.450195312 192 640 c 1
 448 640 l 1
 448 711.450195312 391.450195312 768 320 768 c 0
704 768 m 0
 632.549804688 768 576 711.450195312 576 640 c 1
 832 640 l 1
 832 711.450195312 775.450195312 768 704 768 c 0
EndSplineSet
EndChar

StartChar: scircumflex
Encoding: 349 349 62
Width: 768
VWidth: 0
Flags: W
HStem: 0 21G<320 448> 0 21G<320 448> 256 128<203.006 320 448 564.994> 619.961 20G<356.365 411.635> 619.961 20G<356.365 411.635>
VStem: 320 128<0 256 384 501.035>
LayerCount: 2
Fore
SplineSet
384 639.9609375 m 0xb4
 439.270507812 639.9609375 494.540039062 625.682617188 544 597.126953125 c 0
 642.919921875 540.015625 704 434.22265625 704 320 c 2
 704 256 l 1
 448 256 l 1
 448 0 l 1
 320 0 l 1
 320 256 l 1
 64 256 l 1
 64 320 l 2
 64 434.22265625 125.080078125 540.015625 224 597.126953125 c 0
 273.459960938 625.682617188 328.729492188 639.9609375 384 639.9609375 c 0xb4
320 501.037109375 m 1
 309.021484375 497.1484375 298.307617188 492.228515625 288 486.27734375 c 0
 247.708007812 463.014648438 218.01171875 426.483398438 203.005859375 384 c 1
 320 384 l 1
 320 501.037109375 l 1
448 501.03515625 m 1
 448 384 l 1
 564.994140625 384 l 1
 549.98828125 426.483398438 520.291992188 463.014648438 480 486.27734375 c 0
 469.692382812 492.228515625 458.978515625 497.146484375 448 501.03515625 c 1
EndSplineSet
EndChar

StartChar: Ccircumflex
Encoding: 264 264 63
Width: 896
VWidth: 0
Flags: W
HStem: 0 128<249.143 391.664> 64 128<591.279 688.19> 876 20G<448 576>
VStem: 64 128<186.185 256> 448 128<208.753 896>
LayerCount: 2
Fore
SplineSet
448 896 m 1xb8
 576 896 l 1
 576 320 l 1
 576 256 l 2
 576 219.895507812 603.895507812 192 640 192 c 0
 676.104492188 192 704 219.895507812 704 256 c 1
 832 256 l 1
 832 150.719726562 745.280273438 64 640 64 c 0x78
 596.909179688 64 556.932617188 78.5341796875 524.734375 102.916015625 c 1
 477.895507812 40.5712890625 403.388671875 0 320 0 c 0
 179.373046875 0 64 115.373046875 64 256 c 1
 192 256 l 1
 192 184.549804688 248.549804688 128 320 128 c 0
 391.450195312 128 448 184.549804688 448 256 c 2
 448 320 l 1
 448 896 l 1xb8
EndSplineSet
EndChar

StartChar: ccircumflex
Encoding: 265 265 64
Width: 512
VWidth: 0
Flags: W
HStem: -128 128<207.81 304.19> 620 20G<320 448> 620 20G<320 448>
VStem: 320 128<16.2693 640>
LayerCount: 2
Fore
SplineSet
320 640 m 1xd0
 448 640 l 1
 448 64 l 2
 448 -41.2802734375 361.280273438 -128 256 -128 c 0
 150.719726562 -128 64 -41.2802734375 64 64 c 1
 192 64 l 1
 192 27.8955078125 219.895507812 0 256 0 c 0
 292.104492188 0 320 27.8955078125 320 64 c 2
 320 640 l 1xd0
EndSplineSet
EndChar
